<svg width="32" height="48" viewBox="0 0 32 48" fill="none" xmlns="http://www.w3.org/2000/svg">
<path d="M30.3335 11.6387C30.3335 13.7428 29.896 15.5658 29.021 17.1074C28.146 18.6491 26.9585 19.9095 25.4585 20.8887C23.9793 21.8678 22.3127 22.5866 20.4585 23.0449V23.2324C24.1252 23.6908 26.9064 24.8158 28.8022 26.6074C30.7189 28.3991 31.6772 30.7949 31.6772 33.7949C31.6772 36.4616 31.021 38.847 29.7085 40.9512C28.4168 43.0553 26.4168 44.7116 23.7085 45.9199C21.0002 47.1283 17.5106 47.7324 13.2397 47.7324C10.7189 47.7324 8.36475 47.5241 6.17725 47.1074C4.01058 46.7116 1.96891 46.097 0.0522461 45.2637V37.0449C2.01058 38.0449 4.06266 38.8053 6.2085 39.3262C8.35433 39.8262 10.3543 40.0762 12.2085 40.0762C15.6668 40.0762 18.0835 39.4824 19.4585 38.2949C20.8543 37.0866 21.5522 35.3991 21.5522 33.2324C21.5522 31.9616 21.2293 30.8887 20.5835 30.0137C19.9377 29.1387 18.8127 28.472 17.2085 28.0137C15.6252 27.5553 13.4064 27.3262 10.5522 27.3262H7.0835V19.9199H10.6147C13.4272 19.9199 15.5627 19.6595 17.021 19.1387C18.5002 18.597 19.5002 17.8678 20.021 16.9512C20.5627 16.0137 20.8335 14.9512 20.8335 13.7637C20.8335 12.1387 20.3335 10.8678 19.3335 9.95117C18.3335 9.03451 16.6668 8.57617 14.3335 8.57617C12.8752 8.57617 11.5418 8.76367 10.3335 9.13867C9.146 9.49284 8.07308 9.93034 7.11475 10.4512C6.15641 10.9512 5.31266 11.4408 4.5835 11.9199L0.114746 5.26367C1.90641 3.97201 4.00016 2.89909 6.396 2.04492C8.81266 1.19076 11.6877 0.763672 15.021 0.763672C19.7293 0.763672 23.4585 1.71159 26.2085 3.60742C28.9585 5.50326 30.3335 8.18034 30.3335 11.6387Z" fill="white"/>
</svg>
