<svg width="32" height="47" viewBox="0 0 32 47" fill="none" xmlns="http://www.w3.org/2000/svg">
<path d="M16.9822 16.9199C19.7738 16.9199 22.253 17.4512 24.4197 18.5137C26.6072 19.5762 28.3259 21.1387 29.5759 23.2012C30.8259 25.2637 31.4509 27.8053 31.4509 30.8262C31.4509 34.1178 30.7634 36.9616 29.3884 39.3574C28.0343 41.7324 26.003 43.5553 23.2947 44.8262C20.6072 46.097 17.253 46.7324 13.2322 46.7324C10.8363 46.7324 8.57593 46.5241 6.45093 46.1074C4.34676 45.7116 2.50301 45.097 0.919678 44.2637V35.9199C2.50301 36.7533 4.39884 37.4616 6.60718 38.0449C8.83634 38.6074 10.9301 38.8887 12.8884 38.8887C14.8051 38.8887 16.4197 38.6387 17.7322 38.1387C19.0447 37.6178 20.0343 36.8262 20.7009 35.7637C21.3884 34.6803 21.7322 33.3053 21.7322 31.6387C21.7322 29.4095 20.9822 27.7012 19.4822 26.5137C17.9822 25.3262 15.6801 24.7324 12.5759 24.7324C11.3884 24.7324 10.1488 24.847 8.85718 25.0762C7.58634 25.3053 6.52384 25.5345 5.66968 25.7637L1.82593 23.7012L3.54468 0.419922H28.3259V8.60742H12.0134L11.1697 17.5762C11.878 17.4303 12.6488 17.2845 13.4822 17.1387C14.3155 16.9928 15.4822 16.9199 16.9822 16.9199Z" fill="white"/>
</svg>
